<svg id="cancel_black_24dp" xmlns="http://www.w3.org/2000/svg" width="30.653" height="30.653" viewBox="0 0 30.653 30.653">
  <path id="Path_69" data-name="Path 69" d="M0,0H30.653V30.653H0Z" fill="none" opacity="0.87"/>
  <path id="Path_70" data-name="Path 70" d="M14.772,2A12.772,12.772,0,1,0,27.544,14.772,12.76,12.76,0,0,0,14.772,2Zm0,22.989A10.218,10.218,0,1,1,24.989,14.772,10.231,10.231,0,0,1,14.772,24.989Zm4.585-16.6-4.585,4.585L10.187,8.386l-1.8,1.8,4.585,4.585L8.386,19.357l1.8,1.8,4.585-4.585,4.585,4.585,1.8-1.8-4.585-4.585,4.585-4.585Z" transform="translate(0.554 0.554)" fill="#fff"/>
</svg>
