<svg xmlns="http://www.w3.org/2000/svg" width="207.36" height="207.36" viewBox="0 0 207.36 207.36">
  <path id="image-svgrepo-com" d="M0,168.584a36.891,36.891,0,0,0,11.4,27.372,38.674,38.674,0,0,0,27.579,11.4h129.6a38.94,38.94,0,0,0,38.776-38.776V38.984a37.57,37.57,0,0,0-11.4-27.579A37.33,37.33,0,0,0,168.584,0H38.984A37.57,37.57,0,0,0,11.4,11.4,37.57,37.57,0,0,0,0,38.984v129.6Zm25.92,0V38.984a12.411,12.411,0,0,1,3.732-9.124,13.4,13.4,0,0,1,9.331-3.94h129.6a12.524,12.524,0,0,1,9.124,3.94,11.809,11.809,0,0,1,3.732,9.124v129.6a12.745,12.745,0,0,1-12.856,12.856H38.984a13.111,13.111,0,0,1-9.331-3.732,11.437,11.437,0,0,1-3.732-9.124ZM38.984,155.52a13.111,13.111,0,0,0,3.732,9.331,11.436,11.436,0,0,0,9.124,3.732H155.52a12.411,12.411,0,0,0,9.124-3.732,13.4,13.4,0,0,0,3.94-9.331v-6.013q-1.452-2.9-7.258-17.418t-10.368-23.224a103.331,103.331,0,0,0-8.294-13.686q-3.525-3.732-7.258-3.94a11.549,11.549,0,0,0-7.465,2.488,40.516,40.516,0,0,0-7.465,7.258q-3.732,4.562-7.672,10.161t-7.465,10.99q-3.525,5.391-7.465,10.368a57.654,57.654,0,0,1-7.05,7.672,11.434,11.434,0,0,1-7.05,2.9q-3.732,0-10.783-9.331-1.037-1.244-3.11-3.94-7.258-9.746-10.368-11.82-4.977-3.318-7.672,2.281-1.452,3.318-6.013,14.515t-6.843,16.589v4.147Zm0-97.045A19.118,19.118,0,0,0,58.268,77.76a19.312,19.312,0,0,0,13.893-5.6,17.612,17.612,0,0,0,5.6-13.686,20.524,20.524,0,0,0-5.6-13.893,17.479,17.479,0,0,0-13.893-5.6q-8.5.207-13.686,5.6A20.755,20.755,0,0,0,38.984,58.476Z" fill="#d9d9d9"/>
</svg>
