<svg xmlns="http://www.w3.org/2000/svg" width="164.508" height="43.175" viewBox="0 0 164.508 43.175">
  <g id="Group_7268" data-name="Group 7268" transform="translate(-319.933 -20.536)">
    <g id="Group_7272" data-name="Group 7272" transform="translate(319.933 20.536)">
      <g id="Group_7268-2" data-name="Group 7268" transform="translate(0)">
        <g id="Group_7270" data-name="Group 7270">
          <path id="Path_3554" data-name="Path 3554" d="M297.109,147.527a10.907,10.907,0,0,1-6.8,2.45c2.927-1.274,5.283-3.084,6.19-5.48l-1.425-5.457c-1.18,6.44-8.339,9.732-12.928,7.62a36.69,36.69,0,0,0,2.663,5.553c.78-1.469,3.753-1.545,4.906-.883a5.709,5.709,0,0,0-2.746,2.181c-1.027,1.784-.115,2.673-.114,4.551a22.82,22.82,0,0,1-.246,3.216,15.468,15.468,0,0,1,2.608.824c.88-2.11,3.568-3.337,3.4-6.079a2.051,2.051,0,0,1-1.851,1.034c-1.933-.124-1.725-2.647-.42-3.726a6.857,6.857,0,0,1,7.7.043,20.6,20.6,0,0,0-.925-5.846" transform="translate(-263.851 -118.926)" fill="#eb3f16" fill-rule="evenodd"/>
          <path id="Path_3555" data-name="Path 3555" d="M171.769,153.78c-.239-7.786-12.718-13.511-12.451-22.79a26.476,26.476,0,0,0-2.188,7.066,12.133,12.133,0,0,0,6.246,5,10.614,10.614,0,0,1-6.792-2.44,30.477,30.477,0,0,0-.883,5.889c1.581-1.353,5.108-1.556,7.126-.416,1.155.652,2.183,2.475,1.177,3.568a1.984,1.984,0,0,1-2.92-.44c-.1,2.552,2.79,4.095,3.366,5.952,1.446-.808,4.249-1.324,7.32-1.394" transform="translate(-155.7 -112.041)" fill="#9c0b1f" fill-rule="evenodd"/>
          <path id="Path_3556" data-name="Path 3556" d="M211.418,69.187c7.951-.212,10.939-7.425,7.41-13.861a11.5,11.5,0,0,0-10.354-5.811,11.883,11.883,0,0,0-11.54,9.96c-1.588,9.3,11.135,16.284,11.6,24.621a28.556,28.556,0,0,1,3.476.306c.49-3.567-.725-6.35-2.419-9.571-1.258-2.393-4.7-7.876-1.965-10.151a3.141,3.141,0,0,1,4.908,1.535,3.091,3.091,0,0,1-1.117,2.972M202.565,61.7c-1-5.36,7.091-9.72,11.062-4.164-4.627-2.206-9.139-.529-11.062,4.164m13.627-4.727c1.632,2.805,1.3,6.062-.925,7.966a5.6,5.6,0,0,0-1.4-4.527,5.755,5.755,0,0,0-9.54,3.027c-.91,4.923,4.417,11.83,4.864,16.137-2.264-7.094-9.742-11.875-9.062-18.885a8.421,8.421,0,0,1,7.524-7.984,8.611,8.611,0,0,1,8.542,4.266" transform="translate(-190.852 -42.352)" fill="#e96a2b" fill-rule="evenodd"/>
          <path id="Path_3557" data-name="Path 3557" d="M199.166,12.955c3.721-5.546,9.583-8.713,17.707-6.141a12.13,12.13,0,0,0-2.481-2.986,15.1,15.1,0,0,0-4.205-.084,9.5,9.5,0,0,1,2.775-1.3A8.827,8.827,0,0,0,209.934,0a34.407,34.407,0,0,0-10.768,12.955" transform="translate(-192.878)" fill="#9c0b1f" fill-rule="evenodd"/>
        </g>
      </g>
    </g>
    <g id="Group_7273" data-name="Group 7273" transform="translate(179.5 -382.248)">
      <g id="Group_6900" data-name="Group 6900" transform="translate(189.761 413.327)">
        <g id="Group_6907" data-name="Group 6907">
          <g id="Group_7269" data-name="Group 7269">
            <g id="Group_7271" data-name="Group 7271" transform="translate(0 0)">
              <path id="Path_3558" data-name="Path 3558" d="M8.643,355.067c.078-.052.194-.133.368-.269a2.9,2.9,0,0,0,1.08-2.458,3.61,3.61,0,0,0-.933-2.424,3.514,3.514,0,0,0-1.541-.921,7.512,7.512,0,0,0-2.341-.328H0v13.415H5.9c1.84,0,3.159-.432,3.92-1.287a3.731,3.731,0,0,0,.989-2.552,3.269,3.269,0,0,0-.773-2.208,3.479,3.479,0,0,0-1.4-.969M6.6,352.774c0,.689-.322.831-.429.879a4.379,4.379,0,0,1-1.673.236H3.395v-2.268H4.52a4.04,4.04,0,0,1,1.69.249c.265.138.395.433.395.9m-3.209,3.9H4.833a5.41,5.41,0,0,1,1.99.264c.215.095.5.293.5.944a.961.961,0,0,1-.473.966,4.154,4.154,0,0,1-1.741.278H3.395Z" transform="translate(0.001 -348.667)" fill="#fff"/>
              <path id="Path_3559" data-name="Path 3559" d="M72.616,348.667h-3.4v13.415h8.893V359h-5.5Z" transform="translate(-54.663 -348.667)" fill="#fff"/>
              <path id="Path_3560" data-name="Path 3560" d="M133.8,356.048a3.6,3.6,0,0,1-.653,2.283,2.07,2.07,0,0,1-1.726.8,2.092,2.092,0,0,1-1.736-.8,3.565,3.565,0,0,1-.662-2.282v-7.381h-3.4v7.474a5.983,5.983,0,0,0,1.638,4.484,6.239,6.239,0,0,0,8.3.01,6,6,0,0,0,1.629-4.494v-7.474h-3.4Z" transform="translate(-99.207 -348.667)" fill="#fff"/>
              <path id="Path_3561" data-name="Path 3561" d="M204.556,356.861h5.775V353.89h-5.775v-2.139h6.421v-3.084H201.16v13.415h10.02v-3.065h-6.624Z" transform="translate(-158.856 -348.667)" fill="#fff"/>
              <path id="Path_3562" data-name="Path 3562" d="M294.155,351.677h3.652v10.406h3.4V351.677h3.652v-3.01h-10.7Z" transform="translate(-232.295 -348.667)" fill="#fff"/>
              <path id="Path_3563" data-name="Path 3563" d="M372.334,353.208a4.172,4.172,0,0,0-1.381-3.468,7.273,7.273,0,0,0-4.451-1.072h-5.147v13.415h3.4v-4.114h1.6l2.86,4.114h4.177l-3.366-4.754c1.535-.693,2.314-2.077,2.314-4.121m-3.9,1.339a2.9,2.9,0,0,1-1.838.413h-1.845v-3.3h1.9a3.339,3.339,0,0,1,1.789.341,1.405,1.405,0,0,1,.442,1.217,1.716,1.716,0,0,1-.448,1.329" transform="translate(-285.363 -348.668)" fill="#fff"/>
              <path id="Path_3564" data-name="Path 3564" d="M437.3,356.861h5.774V353.89H437.3v-2.139h6.42v-3.084H433.9v13.415h10.02v-3.065H437.3Z" transform="translate(-342.655 -348.667)" fill="#fff"/>
              <path id="Path_3565" data-name="Path 3565" d="M503.448,359.018v-2.157h5.774v-2.972h-5.774v-2.138h6.421v-3.084h-9.817v13.415h10.02v-3.065Z" transform="translate(-394.892 -348.667)" fill="#fff"/>
              <path id="Path_3566" data-name="Path 3566" d="M158.449,457.4a2.069,2.069,0,0,1,.638,1.666,1.975,1.975,0,0,1-.655,1.644,3.184,3.184,0,0,1-2,.52h-.806v1.692h-1.353v-6.063h2.143a3.115,3.115,0,0,1,2.034.542m-.993,2.386a1.169,1.169,0,0,0,.243-.8.844.844,0,0,0-.317-.745,1.738,1.738,0,0,0-.985-.222h-.771v2.039h.91a1.208,1.208,0,0,0,.92-.274" transform="translate(-121.83 -434.104)" fill="#fff"/>
              <path id="Path_3567" data-name="Path 3567" d="M200.4,456.857h1.354v6.063H200.4v-2.385h-2.411v2.385h-1.353v-6.063h1.353v2.533H200.4Z" transform="translate(-155.282 -434.105)" fill="#fff"/>
              <path id="Path_3568" data-name="Path 3568" d="M243.783,461.354a1.191,1.191,0,0,0,1.817,0,1.808,1.808,0,0,0,.333-1.15v-3.347h1.354v3.392a2.693,2.693,0,0,1-.729,2.025,2.812,2.812,0,0,1-3.735,0,2.687,2.687,0,0,1-.732-2.021v-3.392h1.353V460.2a1.783,1.783,0,0,0,.339,1.15" transform="translate(-191.18 -434.105)" fill="#fff"/>
              <path id="Path_3569" data-name="Path 3569" d="M287.915,456.857h1.353v2.489l2.29-2.489h1.675l-2.412,2.68q.312.435,1.154,1.618c.561.789.98,1.379,1.258,1.765h-1.579l-1.779-2.393-.607.676v1.717h-1.353Z" transform="translate(-227.367 -434.105)" fill="#fff"/>
              <path id="Path_3570" data-name="Path 3570" d="M336.006,456.857v1.206h-3.018v1.249H335.7v1.154h-2.715v1.258H336.1v1.2h-4.469v-6.063Z" transform="translate(-261.892 -434.105)" fill="#fff"/>
              <path id="Path_3571" data-name="Path 3571" d="M373.73,458.027v4.893h-1.353v-4.893H370.66v-1.171h4.788v1.171Z" transform="translate(-292.711 -434.105)" fill="#fff"/>
            </g>
          </g>
        </g>
      </g>
    </g>
  </g>
</svg>
