<svg xmlns="http://www.w3.org/2000/svg" width="19.531" height="18.396" viewBox="0 0 19.531 18.396">
  <g id="g10449" transform="translate(13.901 -5.263)">
    <path id="path1237" d="M-9.83,447.3a2.059,2.059,0,0,0-2.036-2.037A2.059,2.059,0,0,0-13.9,447.3a2.059,2.059,0,0,0,2.036,2.037A2.059,2.059,0,0,0-9.83,447.3Z" transform="translate(0 -425.677)" fill="#858585"/>
    <path id="path1235" d="M-9.83,227.3a2.059,2.059,0,0,0-2.036-2.037A2.059,2.059,0,0,0-13.9,227.3a2.059,2.059,0,0,0,2.036,2.037A2.059,2.059,0,0,0-9.83,227.3Z" transform="translate(0 -212.839)" fill="#858585"/>
    <path id="path346" d="M-9.83,7.3a2.059,2.059,0,0,0-2.036-2.037A2.059,2.059,0,0,0-13.9,7.3a2.059,2.059,0,0,0,2.036,2.037A2.059,2.059,0,0,0-9.83,7.3Z" transform="translate(0 0)" fill="#858585"/>
    <path id="path1011" d="M157.572,20.477a1.543,1.543,0,0,0,0,3.083h11.049a1.543,1.543,0,0,0,0-3.083Z" transform="translate(-164.466 -14.719)" fill="#474747"/>
    <path id="path1011-7" d="M157.572,240.478a1.543,1.543,0,0,0,0,3.083h11.049a1.543,1.543,0,0,0,0-3.083Z" transform="translate(-164.466 -227.559)" fill="#474747"/>
    <path id="path1011-5" d="M157.572,460.479a1.543,1.543,0,0,0,0,3.083h11.049a1.543,1.543,0,0,0,0-3.083Z" transform="translate(-164.466 -440.398)" fill="#474747"/>
  </g>
</svg>
