<svg xmlns="http://www.w3.org/2000/svg" width="17.25" height="20.699" viewBox="0 0 17.25 20.699">
  <g id="Reservation" transform="translate(-34.875 -274)">
    <path id="Union_3" data-name="Union 3" d="M-6749-1520h-3v-12h6v3h7v9Z" transform="translate(6789 1812)" fill="#fff"/>
    <g id="form-svgrepo-com" transform="translate(28.875 272.002)">
      <rect id="Rectangle_1650" data-name="Rectangle 1650" width="11.729" height="2.07" rx="1.035" transform="translate(8.76 12.348)" fill="none"/>
      <rect id="Rectangle_1651" data-name="Rectangle 1651" width="10.349" height="2.07" rx="1.035" transform="translate(8.76 16.488)" fill="none"/>
      <g id="Group_6722" data-name="Group 6722" transform="translate(6 1.998)">
        <path id="Path_18242" data-name="Path 18242" d="M34.58,7.518h3.657a.47.47,0,0,0,.483-.483.431.431,0,0,0-.138-.345L34.028,2.137A.431.431,0,0,0,33.683,2a.47.47,0,0,0-.483.483V6.138a1.384,1.384,0,0,0,1.38,1.38Z" transform="translate(-21.471 -1.998)" fill="#858585"/>
        <path id="Path_18243" data-name="Path 18243" d="M22.559,9.589h-4.83a2.074,2.074,0,0,1-2.07-2.07V2.69a.69.69,0,0,0-.69-.69H8.07A2.074,2.074,0,0,0,6,4.07V20.628A2.074,2.074,0,0,0,8.07,22.7H21.179a2.074,2.074,0,0,0,2.07-2.07V10.279A.69.69,0,0,0,22.559,9.589ZM8.76,8.9a.7.7,0,0,1,.69-.668h2.824a.673.673,0,0,1,.677.668v.686a.7.7,0,0,1-.686.681H9.45a.668.668,0,0,1-.681-.681Zm10.349,8.956a.69.69,0,0,1-.69.69H9.45a.69.69,0,0,1-.69-.69v-.677a.69.69,0,0,1,.69-.69h8.969a.69.69,0,0,1,.69.69Zm1.38-4.14a.69.69,0,0,1-.69.7H9.45a.69.69,0,0,1-.69-.69v-.69a.69.69,0,0,1,.69-.69H19.8a.69.69,0,0,1,.69.69Z" transform="translate(-6 -1.999)" fill="#858585"/>
      </g>
    </g>
  </g>
</svg>
