<svg xmlns="http://www.w3.org/2000/svg" width="18" height="17.5" viewBox="0 0 18 17.5">
  <g id="Group_6949" data-name="Group 6949" transform="translate(-14.5 -12.5)">
    <g id="inventory_2_black_24dp" transform="translate(19.5 8)">
      <g id="Group_6724" data-name="Group 6724" transform="translate(-5 4.5)">
        <path id="Path_18251" data-name="Path 18251" d="M18.2,2H3.8A1.842,1.842,0,0,0,2,3.75V6.384a1.761,1.761,0,0,0,.9,1.479V17.75A1.909,1.909,0,0,0,4.7,19.5H17.3a1.909,1.909,0,0,0,1.8-1.75V7.863A1.761,1.761,0,0,0,20,6.384V3.75A1.842,1.842,0,0,0,18.2,2ZM13.7,12.5H8.3V10.75h5.4Zm4.5-6.125H3.8V3.75H18.2Z" transform="translate(-2 -2)" fill="#474747"/>
      </g>
    </g>
    <rect id="Rectangle_1657" data-name="Rectangle 1657" width="15" height="3" transform="translate(16 14)" fill="#858585"/>
    <rect id="Rectangle_1658" data-name="Rectangle 1658" width="7" height="2" transform="translate(20 21)" fill="#858585"/>
  </g>
</svg>
